<svg xmlns="http://www.w3.org/2000/svg" xmlns:xlink="http://www.w3.org/1999/xlink" version="1.1" id="Layer_1" x="0px" y="0px" width="135.5px" height="21.917px" viewBox="0 0 135.5 21.917" enable-background="new 0 0 135.5 21.917" xml:space="preserve">
    <g>
        <polygon fill="#FFFFFF" points="105.602,21.36 108.584,21.36 102.213,11.539 106.123,5.51 103.143,5.51 100.723,9.241 98.303,5.51    95.321,5.51 99.231,11.539 98.078,13.318 93.013,5.51 90.032,5.51 96.587,15.615 92.861,21.36 95.843,21.36 98.079,17.914    100.312,21.36 103.296,21.36 99.568,15.616 100.723,13.837  "/>
        <circle fill="#FFFFFF" cx="20.418" cy="1.918" r="1.805"/>
        <circle fill="#FFFFFF" cx="85.65" cy="1.918" r="1.805"/>
        <path fill="#FFFFFF" d="M83.969,7.14V7.15V21.36h3.363V5.334h-1.558C84.777,5.334,83.969,6.142,83.969,7.14z"/>
        <path fill="#FFFFFF" d="M18.737,7.14V7.15V21.36H22.1V5.334h-1.558C19.545,5.334,18.737,6.142,18.737,7.14z"/>
        <path fill="#FFFFFF" d="M51.163,7.14V7.15v7.219l-0.009,0.026c0,1.256-0.302,2.232-0.904,2.931   c-0.603,0.697-1.388,1.047-2.355,1.047c-0.987,0-1.75-0.339-2.289-1.017c-0.539-0.679-0.808-1.646-0.808-2.899v-1.865V5.348   c0,0-0.799,0-1.254,0c-0.18,0-0.308,0-0.308,0c-1,0-1.811,0.81-1.811,1.81v0.011v0.395v5.029v2.981c0,1.887,0.45,3.389,1.351,4.504   s2.177,1.674,3.831,1.674c1.121,0,2.039-0.281,2.756-0.845c0.717-0.562,1.313-1.234,1.792-2.012v2.522h3.371V21.36V5.348V5.334   h-1.557C51.972,5.334,51.163,6.142,51.163,7.14z"/>
        <path fill="#FFFFFF" d="M14.429,12.165c-0.339-0.405-0.741-0.754-1.209-1.05c-0.467-0.293-0.984-0.553-1.551-0.777   c0.347-0.201,0.689-0.445,1.027-0.73c0.338-0.284,0.631-0.612,0.878-0.988s0.447-0.812,0.604-1.31   c0.154-0.497,0.232-1.07,0.232-1.719V5.53c0-1.4-0.433-2.576-1.296-3.53c-1.141-1.257-2.824-1.887-5.048-1.887H0v21.305h8.342   c1.066,0,2.042-0.126,2.925-0.381c0.882-0.253,1.637-0.623,2.262-1.112c0.625-0.485,1.109-1.095,1.448-1.825   c0.34-0.729,0.511-1.572,0.511-2.525v-0.062c0-0.729-0.092-1.368-0.275-1.917C15.029,13.047,14.768,12.571,14.429,12.165z    M3.371,3.431h4.28c1.101,0,1.94,0.238,2.519,0.715c0.579,0.477,0.869,1.142,0.869,1.994v0.06c0,0.974-0.331,1.701-0.992,2.176   C9.386,8.854,8.504,9.091,7.402,9.091H3.371V3.431z M12.116,15.178c0,0.973-0.331,1.703-0.992,2.191   c-0.661,0.487-1.571,0.729-2.729,0.729H3.371v-5.843h4.777c1.341,0,2.337,0.249,2.99,0.746c0.652,0.497,0.978,1.202,0.978,2.114   V15.178z"/>
        <path fill="#FFFFFF" d="M75.223,5.013c-1.109,0-2.065,0.261-2.869,0.784c-0.803,0.521-1.501,1.213-2.092,2.072   c-0.386-0.858-0.942-1.551-1.667-2.072c-0.725-0.523-1.611-0.784-2.658-0.784c-0.551,0-1.052,0.077-1.502,0.23   c-0.449,0.153-0.854,0.363-1.211,0.629c-0.359,0.267-0.676,0.564-0.951,0.892c-0.275,0.327-0.533,0.675-0.771,1.043V5.348   l-0.001,0.003V5.348c0,0-1.562,0-1.561,0c-1,0-1.811,0.81-1.811,1.81v0.011v14.249h3.372h0.001v-9.02   c0-1.254,0.284-2.236,0.852-2.944c0.569-0.708,1.321-1.063,2.256-1.063s1.659,0.334,2.174,1.002c0.513,0.668,0.77,1.63,0.77,2.885   v9.14h3.373v-9.049c0-1.296,0.288-2.283,0.866-2.96c0.577-0.678,1.325-1.018,2.241-1.018c0.937,0,1.66,0.334,2.173,1.002   c0.514,0.668,0.771,1.639,0.771,2.915v9.109h3.372V11.16c0-1.968-0.454-3.484-1.359-4.55C78.086,5.546,76.829,5.013,75.223,5.013z"/>
        <path fill="#FFFFFF" d="M29.429,0.113h-1.558c-0.997,0-1.805,0.808-1.805,1.805v0.011v16.068v3.362h3.362h9.582v-3.362h-9.582   V0.113z"/>
    </g>
</svg>